<svg viewBox="0 -27.46 411.685 411.685" xmlns="http://www.w3.org/2000/svg" fill="#000000"><g id="SVGRepo_bgCarrier" stroke-width="0"></g><g id="SVGRepo_tracerCarrier" stroke-linecap="round" stroke-linejoin="round"></g><g id="SVGRepo_iconCarrier"><defs><style>.a{fill:#ffffff;}.b{fill:#fcc56b;}.c{fill:#7e7877;}.d{fill:#211715;}.e{fill:#8ac46e;}</style></defs><path class="a" d="M299.976,282.046c-24.353-4.095-59.542-9.9-101.735-16.8l-92.205-15.028c-27.6-4.489-56.7-9.209-86.595-14.044.006-.866.063-9.324.09-14.132a4.811,4.811,0,0,1,2.918-4.4c11.724-5.028,53.887-22.871,76.707-32.6,4.045-27.462,11.244-71.623,13.653-86.317a4.99,4.99,0,0,1,5.742-4.12c11.473,1.895,39.582,6.542,47.8,7.863l121.6,19.7c46.9,7.6,91.6,14.859,116.726,19.033a5.987,5.987,0,0,1,4.94,6.833c-3.242,20.827-9.766,60.821-14.9,93.637-17.2,7.44-90.213,38.285-94.681,40.3"></path><path class="b" d="M235.4,186.581c4.167,2.444,10.323,2.291,13.121,2.1,7.732-.533,13.761-1.982,18.49-4.1a10.687,10.687,0,0,0,5.667-5,21.47,21.47,0,0,0,2.206-7.833,293.285,293.285,0,0,0-.585-56.826c-.514-4.77-1.8-9.784-4.788-13.536a31.671,31.671,0,0,0-5.263-4.957c-5.5-4.462-13.744-10.083-19.445-14.062-4.19,5.594-9.353,8.385-15.926,10.756-4.178,1.507-8.8,2.224-13.069.993-4.338-1.252-8.184-4.837-8.747-9.331-6.391,2.77-10.953,4.672-16.873,7.579a16.575,16.575,0,0,0-5.486,4.458,35.659,35.659,0,0,0-4.041,6.917c-3.919,9.309-6.647,16.2-9.962,25.741l-6.688,17.989Z"></path><path class="a" d="M294.385,343.38a4.434,4.434,0,0,0,1.2,2.066c.71.687,2.233,1.107,4.2,1.107,2.27,0,3.627-.41,4.447-1.107,1.1-.939,1.34-3.068,1.34-4.323.007-12.922.225-48.718.225-60.32v-1.322c-4.248,1.814-6.524,2.8-5.875,2.557l-5.578-.936v.812c0,9.9-.185,48.325-.185,59.209A7.636,7.636,0,0,0,294.385,343.38Z"></path><path class="a" d="M377.5,309.053a7.944,7.944,0,0,1-.167-2.041c0-10.884.185-47.753.185-57.654v-.34c4.345-1.849,8.24-3.511,11.453-4.886v1.337c0,11.6-.219,48.621-.226,61.543,0,1.255-.235,3.384-1.34,4.323-.819.7-2.177,1.107-4.446,1.107-1.967,0-3.49-.42-4.2-1.107A4.491,4.491,0,0,1,377.5,309.053Z"></path><path class="a" d="M34.736,301.817a10.051,10.051,0,0,0,.23-2.161c.01-12.139.19-45.815.22-60.937l-11.45-1.858c-.02,14.864-.18,52.676-.18,62.8a5.426,5.426,0,0,0,1.42,4.32c.71.69,2.24,1.11,4.2,1.11,2.27,0,3.63-.41,4.45-1.11A3.983,3.983,0,0,0,34.736,301.817Z"></path><path class="a" d="M124.221,306.684a.438.438,0,0,0-.145-.029v-3.226a28.469,28.469,0,0,0,6.2,1.147,102.808,102.808,0,0,0,14.106.692v1.66c-1.046-.932-2.618-.032-3.822.685-1.817,1.083-2.906,1.706-5.1,2.776a6.692,6.692,0,0,1-6.284-.15,14.266,14.266,0,0,1-3.848-2.738A4.134,4.134,0,0,0,124.221,306.684Z"></path><path class="a" d="M161.512,315.936c-.179-.162-.362-.333-.547-.516-.244-.239-.944-.867-1.285-.868,0,0,0-1.573,0-3.36.714.1,1.466.187,2.268.272a85.906,85.906,0,0,0,18.577.381v2.987c-1.074-.956-2.687-.033-3.923.7-1.865,1.112-2.983,1.752-5.236,2.85a6.874,6.874,0,0,1-6.451-.154A14.55,14.55,0,0,1,161.512,315.936Z"></path><path class="a" d="M160.417,350.244q.539-.351,1.06-.74c3.861-2.886,7.652-6.632,12.2-9.224,1.976-1.128,4.957-2.015,6.926-3.156,3.469-2.012,3.547-5.358,3.528-9.369s-1.437-7.866-2.853-11.618a3.181,3.181,0,0,0-.75-1.305c-1.074-.956-2.687-.033-3.923.7-1.865,1.112-2.983,1.752-5.236,2.85a6.874,6.874,0,0,1-6.451-.154,14.623,14.623,0,0,1-3.949-2.811c-.244-.239-.944-.867-1.285-.868a4.365,4.365,0,0,0-3.3,1.648,117.5,117.5,0,0,1-13.537,13.86c-4.4,3.565-9.745,7.775-11.862,12.776-.938,2.218-.244,4.817,1.04,6.854,1.312,2.08,4.65,3.922,7.062,4.4C146.975,355.656,153.738,354.6,160.417,350.244Z"></path><path class="a" d="M124.794,341.427q.525-.342,1.032-.721c3.762-2.812,7.455-6.461,11.882-8.987,1.925-1.1,4.83-1.962,6.747-3.074,3.38-1.959,3.456-5.22,3.438-9.127s-1.4-7.664-2.78-11.319a3.1,3.1,0,0,0-.731-1.271c-1.046-.932-2.618-.032-3.822.685-1.817,1.083-2.906,1.706-5.1,2.776a6.692,6.692,0,0,1-6.284-.15,14.266,14.266,0,0,1-3.848-2.738c-.237-.233-.919-.845-1.251-.846a4.254,4.254,0,0,0-3.215,1.605,114.5,114.5,0,0,1-13.188,13.5c-4.288,3.474-9.5,7.575-11.556,12.447-.915,2.161-.238,4.693,1.013,6.677,1.278,2.027,4.53,3.821,6.88,4.287C111.7,346.7,118.287,345.673,124.794,341.427Z"></path><path class="a" d="M259.323,189.236c.18,1.93.27,3.73.26,5.51-.01,3.67-1.35,12-7.3,16.99a122.444,122.444,0,0,1-19.81,13.62c-10.394,5.672-32.3,17.141-42.231,22.054-.221,5.47-.44,10.9-.639,16.319-.65,16.95-1.21,21.72-1.58,38.85-.02.582-.179,2.931-.427,4.474a5.814,5.814,0,0,1-5.027,4.528c-6.017.9-12.267.766-20.622-.117-4.156-.439-6.969-.928-9.989-3.106a5.43,5.43,0,0,1-1.892-3.552c-5.77.77-11.82.61-19.79-.23-4.15-.44-6.97-.93-9.99-3.11-2.38-1.72-2.4-6.28-2.36-13.89.09-16.33.06-22.05.52-37.51.02-.7.04-1.38.06-2.06.15-4.77.35-9.85.76-14.32.221-2.412.491-4.644.851-6.545,1.565-10.229,6.187-15.854,11.813-20.672s21.528-14.111,28.861-18.111l18.639-9.305Z"></path><path class="a" d="M237.513,89.1a44.031,44.031,0,0,1-8.634,4.028c-4.178,1.507-8.8,2.224-13.069.993s-8.059-4.722-8.717-9.115V66.469H242.68l-.662,6.657a19.7,19.7,0,0,0-.04,4.341c.219,1.835.936,4.339,2.25,5.646A26.617,26.617,0,0,1,237.513,89.1Z"></path><path class="a" d="M248.488,47.93a4.545,4.545,0,0,1,3.177-1.1,4.1,4.1,0,0,1,3.661,1.935c1.242,2.056,1.19,5.838.352,8.183a11.91,11.91,0,0,1-3.846,5.787,8.775,8.775,0,0,1-3.939,1.471l-.23.587c-.619,1.181-2.058,3.235-2.058,3.235a39.924,39.924,0,0,1-7.869,8.279L230.7,80.165a45.125,45.125,0,0,1-9.116,2.958c-1.072.191-2.172.331-3.31.42a24.449,24.449,0,0,1-18.427-5.815c-5.222-4.288-7.421-11-8.137-18.4-.413-4.271-.757-8.912-1.31-13.551,0,0-5.055-19.081,21.834-19.081C244.569,26.692,248.488,47.93,248.488,47.93Z"></path><path class="c" d="M226.978,31.14a14.81,14.81,0,0,0-5.507-1.41c-6.959.942-13.442,6.482-16.709,8.4a1.068,1.068,0,0,1-1.55-1.109,5.649,5.649,0,0,0-.185-2.048c-.228-.852-.9-1.2-1.4-.918-4,2.225-9.479,9.72-10.7,13.275l-.524-1.559c-1.211-8.864-.527-13.492.026-16.672,1.379-7.928,4.666-11.949,7.472-15.384,5.947-7.28,16.392-11.474,26.529-11.671,7.982-.155,15.633,1.745,21.883,6.073l4.967,4.483a23.188,23.188,0,0,1,3.716,4.633c6.325,10.024,6.684,24.341,1.531,34.906,0,0-.089.181-.246.507a8.286,8.286,0,0,0-.953-3.886,4.1,4.1,0,0,0-3.661-1.935,4.545,4.545,0,0,0-3.177,1.1l-5.118-1.519C237.549,35.857,229.824,32.3,226.978,31.14"></path><path class="b" d="M57.174,75.951a27.976,27.976,0,0,1-3.965,10.2c-1.039,1.809-4.282,7.245-4.786,8.2a5.315,5.315,0,0,0-.706,1.39c-.053.421.221.608.535.871a15.121,15.121,0,0,0,4.642,2.439,21.675,21.675,0,0,0,6.587,1.47,17.325,17.325,0,0,0,9.907-2.992,1.032,1.032,0,0,0,.465-1.177,30.8,30.8,0,0,0-.569-3.166l-.355-1.818a12.025,12.025,0,0,1-.346-1.835c.22.153.475.235.709.367l.779.438,1.611.906,1.558.877c.26.146.521.291.78.439a2.317,2.317,0,0,0,.754.342c.569.059,1.364-.738,1.794-1.079a12.633,12.633,0,0,0,3-3.634,18.784,18.784,0,0,0,2.324-6.72,19.14,19.14,0,0,0-.02-5.695,12.223,12.223,0,0,0-.747-2.721c-.359-.868-.531-1.595-1.629-1.272-6.6,1.942-13.98,4.028-20.9,3.263,0,0-1.04-.15-1.259-.21C57.307,75.051,57.174,75.951,57.174,75.951Z"></path><path class="d" d="M161.426,351.971c4.881-3.258,8.863-7.888,14.206-10.457,2.43-1.169,5.148-1.847,7.27-3.576a9.007,9.007,0,0,0,3.041-6.044,26.671,26.671,0,0,0-.261-8.33,34.011,34.011,0,0,0-1.213-4.465,28.872,28.872,0,0,0-1.769-4.675c-3.271-5.965-10.564,3.157-14.836,2.674-2.753-.311-4.388-2.46-6.5-3.928-1.989-1.385-4.81-.167-6.284,1.47-.154.171-.3.374-.432.55-.258.332.216-.269.018-.024-.169.21-.339.418-.512.625-.585.7-1.188,1.38-1.8,2.058q-2.347,2.613-4.819,5.11c-3.6,3.64-7.619,6.689-11.4,10.116-3.878,3.517-8.658,8.477-7.324,14.18a11.1,11.1,0,0,0,5.472,7.058,20.625,20.625,0,0,0,8.988,2.368,29.125,29.125,0,0,0,18.144-4.71c2.158-1.388.155-4.852-2.019-3.454a25.2,25.2,0,0,1-13.7,4.258c-4.038.01-9.88-.5-12.17-4.439a6.683,6.683,0,0,1-.992-3.19,5.984,5.984,0,0,1,1.1-3.139,25.874,25.874,0,0,1,4.718-5.542c3.308-3.094,6.978-5.749,10.23-8.911,2.825-2.748,5.565-5.611,8.12-8.612.426-.5.829-1.014,1.237-1.528.084-.106.258-.25-.087.111a1.943,1.943,0,0,1,.225-.246,9.18,9.18,0,0,1,.962-.626c.136-.078.7-.089.232-.152-.328-.043-.069-.02.111.186a10.146,10.146,0,0,0,1.118,1.024,17.115,17.115,0,0,0,3.1,2.1,9.31,9.31,0,0,0,7.84.708,51.208,51.208,0,0,0,6.478-3.439,3.193,3.193,0,0,1,1.228-.6c.4-.011-.007-.129.086-.078.026.015.309.809.267.7.5,1.3.975,2.616,1.393,3.945a25.3,25.3,0,0,1,1.222,8.18c-.031,1.934-.109,4.176-1.669,5.556-1.853,1.639-4.649,2.222-6.84,3.277-5.352,2.575-9.324,7.2-14.207,10.457C157.277,349.94,159.277,353.406,161.426,351.971Z"></path><path class="d" d="M125.8,343.154c4.77-3.184,8.661-7.714,13.892-10.212,2.366-1.131,5.006-1.8,7.066-3.487a8.943,8.943,0,0,0,2.972-6.051,26.057,26.057,0,0,0-.3-8.124,34.135,34.135,0,0,0-1.259-4.517,25.627,25.627,0,0,0-1.624-4.259c-3.338-5.911-10.429,3.272-14.795,2.536a8.616,8.616,0,0,1-3.123-1.409c-1.127-.731-1.965-1.866-3.124-2.535-1.951-1.127-4.63.1-5.99,1.663-.149.172-.278.362-.418.541-.174.222.332-.41.009-.016-.2.24-.394.481-.594.718-.541.64-1.1,1.268-1.658,1.891q-2.274,2.527-4.667,4.945c-3.435,3.475-7.263,6.4-10.887,9.657-3.817,3.43-8.547,8.257-7.377,13.854a10.834,10.834,0,0,0,5.4,7.092,19.911,19.911,0,0,0,8.513,2.286,28.431,28.431,0,0,0,17.966-4.573c2.158-1.387.155-4.851-2.019-3.453a24.541,24.541,0,0,1-13.487,4.14c-3.985-.012-9.592-.569-11.755-4.5a6.064,6.064,0,0,1-.845-3.15,6.75,6.75,0,0,1,1.284-3.126,26.383,26.383,0,0,1,4.537-5.183c3.2-2.969,6.73-5.538,9.863-8.59,2.693-2.623,5.3-5.355,7.747-8.211.338-.395.671-.793.992-1.2.761-.968-.029-.121.381-.465a3.2,3.2,0,0,1,.783-.579,4.157,4.157,0,0,0,.429-.141c.215-.248-.192-.138-.156-.1.318.336.691.654,1.038.957a16.769,16.769,0,0,0,2.948,2.092,9.389,9.389,0,0,0,7.579,1.037,35.889,35.889,0,0,0,6.448-3.338c.428-.251.869-.471,1.308-.7-1.534.8.535-.059.355-.122-.308-.108.014.343.034.432.324,1.421,1.053,2.819,1.487,4.219a24.287,24.287,0,0,1,1.136,7.646c-.023,1.89-.064,4.119-1.578,5.481-1.828,1.645-4.634,2.214-6.806,3.274-5.158,2.519-9,6.978-13.722,10.131C121.653,341.123,123.654,344.589,125.8,343.154Z"></path><path class="d" d="M394.342,148.16c-3.424,20.527-6.621,41.094-9.837,61.654q-1.651,10.557-3.28,21.118a2.064,2.064,0,0,0,1.4,2.461,2.015,2.015,0,0,0,2.46-1.4q5.466-35.482,11.182-70.926.957-5.925,1.936-11.847a2.061,2.061,0,0,0-1.4-2.46,2.018,2.018,0,0,0-2.461,1.4Z"></path><path class="d" d="M396.673,241.984q3.636-23.229,7.38-46.441,3.252-20.3,6.485-40.592.306-1.933.608-3.868a24.364,24.364,0,0,0,.538-4.091,8.1,8.1,0,0,0-5.638-7.521,57.027,57.027,0,0,0-7.869-1.369q-4.341-.717-8.682-1.43-21.442-3.525-42.891-7.007-25.749-4.189-51.5-8.359l-6.625-1.074a2.062,2.062,0,0,0-2.46,1.4,2.016,2.016,0,0,0,1.4,2.46q25.517,4.134,51.03,8.279,21.816,3.546,43.629,7.117,8.692,1.425,17.383,2.861l3.619.6a5.635,5.635,0,0,1,3.536,1.436c1.788,1.936.821,4.73.459,7.032q-3.026,19.258-6.143,38.5-3.645,22.737-7.245,45.481l-.867,5.524a2.064,2.064,0,0,0,1.4,2.46,2.016,2.016,0,0,0,2.461-1.4Z"></path><path class="d" d="M194,196.965c-6.035,2.836-11.934,5.878-17.694,9.238-3.618,2.111-7.3,4.172-10.813,6.447a45.825,45.825,0,0,0-9.7,8.4,23.352,23.352,0,0,0-4.93,8.192,55.692,55.692,0,0,0-2.048,12.648c-.71,8.739-.818,17.543-.994,26.307-.146,7.281-.174,14.564-.208,21.846-.02,4.21-.232,8.481.151,12.679.252,2.765.8,5.635,3.179,7.363,3.181,2.313,6.968,2.944,10.786,3.356a107.687,107.687,0,0,0,13.153.744c1.912-.029,3.824-.139,5.725-.35a12.439,12.439,0,0,0,5.5-1.468c3.39-2.156,3.716-5.787,3.9-9.467.368-7.448.452-14.913.827-22.364.431-8.561.769-17.124,1.108-25.689q.148-3.719.3-7.437l-.991,1.727c10.7-5.3,21.276-10.875,31.826-16.471,5.5-2.919,11.077-5.761,16.353-9.077,3.48-2.187,6.838-4.561,10.088-7.077,2.96-2.29,5.888-4.539,7.951-7.713,3.816-5.871,4.465-12.765,3.854-19.563a2.054,2.054,0,0,0-2-2,2.015,2.015,0,0,0-2,2c.508,5.65.281,11.1-2.5,16.192-1.677,3.07-4.186,5.148-6.894,7.289-3.126,2.471-6.385,4.781-9.743,6.928-5.133,3.282-10.564,6.079-15.94,8.937q-8.34,4.433-16.723,8.784c-5.41,2.81-10.826,5.612-16.29,8.317a2,2,0,0,0-.99,1.727c-.628,15.534-1.478,31.066-1.989,46.6-.122,3.71-.059,7.449-.423,11.145-.143,1.456-.329,2.741-1.591,3.661-1.314.958-3.148.983-4.707,1.125a73.868,73.868,0,0,1-11.358.058c-3.873-.245-8.053-.347-11.77-1.567a11.243,11.243,0,0,1-2.04-.907,5.227,5.227,0,0,1-1.541-1.074c-.176-.231.008.067-.2-.289-.04-.069-.288-.561-.205-.366a8.759,8.759,0,0,1-.5-1.879c-.633-3.541-.335-7.33-.317-10.907.035-7.136.047-14.273.161-21.408.126-7.915.3-15.84.679-23.747a102.524,102.524,0,0,1,1.2-12.906,21.568,21.568,0,0,1,3.064-8.65c4.52-6.652,11.39-10.6,18.145-14.6,5.335-3.157,10.708-6.217,16.277-8.943q2.438-1.192,4.9-2.341c2.328-1.094.3-4.544-2.019-3.454Z"></path><path class="d" d="M159.781,186.631c-6.775,3.7-13.446,7.627-19.942,11.8-6.085,3.909-12.068,8.107-16.261,14.119a33.628,33.628,0,0,0-5.39,14.067l3.928.531h0c0-2.185-3.509-2.808-3.928-.532-1.5,8.15-1.543,16.572-1.782,24.831q-.29,10.011-.388,20.024c-.062,7.378-.312,14.8-.048,22.174.092,2.547.2,5.5,1.586,7.735,1.516,2.445,4.766,3.755,7.442,4.4a71.329,71.329,0,0,0,13.157,1.428,67.524,67.524,0,0,0,11.911-.4,2.065,2.065,0,0,0,2-2,2.012,2.012,0,0,0-2-2,83.465,83.465,0,0,1-21.236-.394,21.338,21.338,0,0,1-4.418-.977,11.062,11.062,0,0,1-1.874-.886c-.317-.185-.626-.385-.93-.59-.427-.288-.111-.028-.39-.33s-.047,0-.209-.27a5.612,5.612,0,0,1-.288-.535c.093.2-.095-.271-.116-.34-.095-.311-.18-.623-.25-.94a21.1,21.1,0,0,1-.378-3.721c-.278-7.095-.022-14.242.033-21.342q.072-9.214.323-18.425c.237-8.745.122-17.748,1.712-26.378l-3.929-.532h0c0,2.176,3.568,2.82,3.929.532a31.353,31.353,0,0,1,4.268-12.03,34.98,34.98,0,0,1,7.186-7.9c5.371-4.521,11.951-8.21,18.067-11.826,3.381-2,6.787-3.958,10.234-5.841,2.26-1.234.244-4.689-2.019-3.454Z"></path><path class="d" d="M206.538,254.065q38.148,6.243,76.284,12.561,7.914,1.317,15.826,2.648a2.059,2.059,0,0,0,2.46-1.4,2.016,2.016,0,0,0-1.4-2.461q-33.961-5.715-67.955-11.25-12.078-1.983-24.155-3.958a2.06,2.06,0,0,0-2.46,1.4,2.016,2.016,0,0,0,1.4,2.461Z"></path><path class="d" d="M105.64,235.958q-28.565-4.644-57.13-9.277l-16.582-2.69a2.061,2.061,0,0,0-2.46,1.4,2.015,2.015,0,0,0,1.4,2.46q29,4.7,58,9.414l15.708,2.553a2.061,2.061,0,0,0,2.46-1.4,2.014,2.014,0,0,0-1.4-2.46Z"></path><path class="d" d="M197.71,267.176q22.923,3.75,45.845,7.521,19.151,3.153,38.3,6.336,8.8,1.464,17.593,2.942a2.06,2.06,0,0,0,2.46-1.4,2.016,2.016,0,0,0-1.4-2.46q-16.557-2.785-33.124-5.52-20.918-3.464-41.84-6.893-13.385-2.2-26.771-4.386a2.059,2.059,0,0,0-2.46,1.4,2.015,2.015,0,0,0,1.4,2.46Z"></path><path class="d" d="M106.568,248.291q-33.5-5.449-67-10.879l-19.586-3.174a2.061,2.061,0,0,0-2.46,1.4,2.016,2.016,0,0,0,1.4,2.461Q53.007,243.62,87.1,249.156l18.407,2.992a2.062,2.062,0,0,0,2.46-1.4,2.016,2.016,0,0,0-1.4-2.46Z"></path><path class="d" d="M98.2,183.29q-21.093,9-42.209,17.936C44.559,206.077,33.068,210.81,21.7,215.8a6.83,6.83,0,0,0-4.041,5,39.159,39.159,0,0,0-.158,6.373q-.028,4.536-.059,9.072c-.017,2.575,3.983,2.577,4,0q.024-3.591.047-7.183.018-2.773.034-5.547c.011-1.841.08-3.284,1.936-4.148,4.335-2.018,8.82-3.763,13.221-5.633q20.739-8.814,41.485-17.612,11.029-4.684,22.054-9.38a2.012,2.012,0,0,0,.717-2.737,2.052,2.052,0,0,0-2.736-.717Z"></path><path class="d" d="M301.039,283.7c9.445-4.258,19.071-8.149,28.607-12.2q23.376-9.921,46.748-19.847,9.3-3.956,18.585-7.94a2.013,2.013,0,0,0,.718-2.737,2.052,2.052,0,0,0-2.737-.717C380.1,245.8,367.2,251.25,354.315,256.721q-21.977,9.327-43.951,18.658c-3.783,1.61-7.594,3.172-11.343,4.862a2.016,2.016,0,0,0-.718,2.737,2.048,2.048,0,0,0,2.736.717Z"></path><path class="d" d="M300.5,269.157c8.374-3.775,16.908-7.226,25.364-10.814q20.871-8.858,41.74-17.721,8.283-3.524,16.555-7.073a2.011,2.011,0,0,0,.717-2.736,2.05,2.05,0,0,0-2.736-.718c-11.409,4.922-22.857,9.755-34.3,14.61q-19.629,8.332-39.259,16.666c-3.371,1.435-6.766,2.826-10.1,4.332a2.015,2.015,0,0,0-.718,2.736,2.05,2.05,0,0,0,2.737.718Z"></path><path class="d" d="M166.879,100.536c-8.286-1.333-16.565-2.708-24.845-4.073l-14.422-2.38-6.118-1.011c-2.357-.389-4.582-.883-6.849.19-3.979,1.881-4.033,6.562-4.648,10.33q-1,6.11-1.989,12.221-2.58,15.92-5.106,31.847c-1.924,12.159-3.825,24.322-5.622,36.5a2.066,2.066,0,0,0,1.4,2.46,2.014,2.014,0,0,0,2.46-1.4c3.117-21.123,6.5-42.208,9.909-63.286,1.22-7.551,2.237-15.174,3.692-22.684.416-2.149,2.076-2.921,4.113-2.585l5.565.919L138.3,99.879c9.171,1.513,18.34,3.038,27.517,4.515a2.062,2.062,0,0,0,2.46-1.4,2.017,2.017,0,0,0-1.4-2.461Z"></path><path class="d" d="M267.462,209.731q40.446,6.578,80.889,13.175,10.649,1.737,21.3,3.477a2.06,2.06,0,0,0,2.46-1.4,2.015,2.015,0,0,0-1.4-2.46q-39.377-6.434-78.759-12.841l-23.427-3.811a2.062,2.062,0,0,0-2.46,1.4,2.016,2.016,0,0,0,1.4,2.46Z"></path><path class="d" d="M106.523,188.176l31.182,5.055a2.061,2.061,0,0,0,2.46-1.4,2.016,2.016,0,0,0-1.4-2.46q-15.591-2.528-31.182-5.055a2.061,2.061,0,0,0-2.46,1.4,2.016,2.016,0,0,0,1.4,2.46Z"></path><path class="d" d="M243.587,83.946c4.84,3.38,9.713,6.714,14.462,10.221,4.629,3.418,9.832,6.894,12.193,12.345a29.473,29.473,0,0,1,2.059,8.41c.4,3.575.7,7.163.959,10.752q.76,10.767.727,21.572-.038,12.268-1.1,24.5c-.221,2.565,3.78,2.55,4,0a295.053,295.053,0,0,0,.458-44.851q-.366-5.508-.939-11a39.463,39.463,0,0,0-1.9-9.425,22.271,22.271,0,0,0-5.007-8.119,64.31,64.31,0,0,0-7.019-5.837c-5.491-4.189-11.208-8.071-16.868-12.024-2.115-1.478-4.117,1.988-2.019,3.453Z"></path><path class="d" d="M250.68,126.969a211.81,211.81,0,0,0-1.334,29.834c.08,2.568,4.081,2.579,4,0a211.81,211.81,0,0,1,1.334-29.834,2.012,2.012,0,0,0-2-2,2.047,2.047,0,0,0-2,2Z"></path><path class="d" d="M207.048,82.626c-3.924,1.7-7.865,3.37-11.763,5.134-3.68,1.666-7.569,3.187-10.515,6.039a27.738,27.738,0,0,0-5.791,8.831c-1.757,4.016-3.386,8.1-4.989,12.177-1.838,4.677-3.566,9.4-5.217,14.142-.848,2.436,3.015,3.483,3.857,1.063,2.763-7.942,5.8-15.775,9.036-23.534,1.287-3.082,2.726-6.332,4.972-8.849,2.631-2.949,6.223-4.384,9.746-6,4.2-1.921,8.45-3.714,12.683-5.553a2.015,2.015,0,0,0,.717-2.737,2.05,2.05,0,0,0-2.736-.717Z"></path><path class="d" d="M240.018,73.126a19.7,19.7,0,0,0,.284,6.312,10.629,10.629,0,0,0,2.519,5.1,2,2,0,0,0,2.829-2.829c-.1-.1-.308-.26-.353-.394q.26.339.069.074c-.053-.078-.1-.156-.154-.236a4.616,4.616,0,0,1-.538-1.036c.154.516-.04-.123-.076-.223-.068-.191-.132-.383-.19-.576-.109-.357-.2-.719-.281-1.083a6.285,6.285,0,0,0-.186-1.036q.066.5.015.084c-.013-.125-.025-.251-.035-.376-.021-.251-.033-.5-.04-.754a24.636,24.636,0,0,1,.137-3.024,2.008,2.008,0,0,0-2-2,2.054,2.054,0,0,0-2,2Z"></path><path class="e" d="M153.532,172.515c-3.909-12.153-9.492-29.157-13.376-41.8,10.572-.081,22.816,6.648,26.449,11.788,10.205-5.251,14.012-6.965,24.647-8.662a62.95,62.95,0,0,1,18.641.154c.335,6.668,1.4,20.355,2.13,30.218l1.3,17.975a81.146,81.146,0,0,0-8.4.486c-12.127,1.565-20.292,4.185-26.685,9.43-1.132-3.331-5.547-7.042-8.585-9.4-4.673-3.621-7.67-4.585-14.758-5.956C154.466,175.427,154.011,174.007,153.532,172.515Z"></path><path class="d" d="M179.9,193.3c5.6-4.441,12.615-6.5,19.54-7.767a74.146,74.146,0,0,1,22.712-.9,2.01,2.01,0,0,0,2-2,2.051,2.051,0,0,0-2-2,69.695,69.695,0,0,0-17.912.131c-6.531.869-13.038,2.129-19.1,4.794a36.8,36.8,0,0,0-8.071,4.91,2.011,2.011,0,0,0,0,2.828,2.049,2.049,0,0,0,2.829,0Z"></path><path class="a" d="M207.719,187.664c-2.715-1.078-6.6-2.916-7.813-5.171a2.691,2.691,0,0,1-.387-1.932c.16-.68.752-.835,1.452-.628a6.189,6.189,0,0,1-1.932-3.679,2.139,2.139,0,0,1,.551-1.689,2.088,2.088,0,0,1,1.947-.643c-.905-1.085-1.953-2.059-2.069-3.636a3.444,3.444,0,0,1,2.006-3.57c-1.008-1.357-.981-3.56.342-4.439a4.527,4.527,0,0,1,3.277-.287c1.154.241,2.6.565,3.955.848l2.918.526c-.13-1.726-.269-3.556-.411-5.435l4.7.207c8.463,0,12.7,3.229,14.717,6.139a6.563,6.563,0,0,0,2.181,1.957,8.1,8.1,0,0,1,3.22,2.7c.674,1.221.559,2.747.634,4.077a14.917,14.917,0,0,1-.535,5.025c-.953,3.27-1,4.348-4.038,6.883-3.978,2.576-5.665,2.639-10.274,3.744q-.324.047-.654.09c-4.23.546-9.261.572-11.276-.155C209.784,188.433,208.854,188.115,207.719,187.664Z"></path><path class="d" d="M154.62,178.731c4.233.832,8.316,1.779,11.945,4.205a45.846,45.846,0,0,1,5.233,4.149c1.641,1.486,3.573,3.227,4.425,5.332a2.065,2.065,0,0,0,2.461,1.4,2.015,2.015,0,0,0,1.4-2.461c-1.979-4.885-6.787-8.589-10.994-11.527-4.039-2.82-8.632-4.014-13.4-4.952-2.515-.494-3.591,3.36-1.064,3.857Z"></path><path class="d" d="M138.317,131.539c4.713,15.306,9.786,30.5,14.647,45.758.778,2.443,4.641,1.4,3.857-1.064-4.861-15.259-9.934-30.451-14.647-45.757-.756-2.453-4.618-1.407-3.857,1.063Z"></path><path class="d" d="M165.033,143.628c3.6,15.605,7.572,31.122,11.326,46.691.6,2.5,4.461,1.442,3.857-1.064-3.753-15.569-7.723-31.085-11.326-46.69-.579-2.507-4.437-1.446-3.857,1.063Z"></path><path class="d" d="M207.916,134.446c.517,9.653,1.324,19.292,2.05,28.93.193,2.551,4.194,2.572,4,0-.726-9.638-1.533-19.277-2.05-28.93-.136-2.56-4.137-2.577-4,0Z"></path><path class="d" d="M168.712,142.087c-2.462-4.048-7.054-6.853-11.193-8.9a39.522,39.522,0,0,0-17.423-4.467c-2.573.007-2.578,4.007,0,4a35.016,35.016,0,0,1,15.4,3.921c3.5,1.734,7.751,4.165,9.758,7.466,1.336,2.2,4.8.188,3.454-2.019Z"></path><path class="d" d="M210.186,132.031a67.635,67.635,0,0,0-24.306.758c-6.854,1.418-13.04,4.281-19.237,7.454-2.293,1.173-.271,4.625,2.018,3.453,5.792-2.964,11.523-5.618,17.919-6.974a62.292,62.292,0,0,1,22.543-.834,2.062,2.062,0,0,0,2.46-1.4,2.015,2.015,0,0,0-1.4-2.46Z"></path><path class="a" d="M139.033,152.8c-3.767,6.142-2.436,15.709,3.409,20.026,1.383.964,3.759,1.552,7.025,1.265a10.511,10.511,0,0,0,3.111-.915c2.61-1.1,4.824-3.533,3.057-6.132a1.308,1.308,0,0,0-.214-.241l.87-1.588c1.528-2.4.8-3.783-.86-4.528,3.026-1.06,2.442-3.913,1.1-5.325a4.582,4.582,0,0,0-2.114-1.29c1.162-1.4,1.342-2.658.839-3.464-1.452-3.863-7.607-3.976-11.088-2.34A11.336,11.336,0,0,0,139.033,152.8Z"></path><path class="d" d="M156.316,154.869a4.969,4.969,0,0,0,.778-5.038,6.978,6.978,0,0,0-2.683-3.174c-2.391-1.517-5.515-1.608-8.219-1.109-5.328.982-9.288,5.309-10.657,10.423a18.474,18.474,0,0,0,2.443,15.042,11.079,11.079,0,0,0,6.25,4.736,14.164,14.164,0,0,0,9.529-.919c3.306-1.588,6.391-5.9,3.238-9.267a6.161,6.161,0,0,0-4.133-1.516,47.267,47.267,0,0,0-6.463.089c-2.562.127-2.577,4.128,0,4,1.482-.073,2.965-.155,4.448-.159.915,0,2.466-.183,3.291.34-.168-.107.1.081.1.08-.267-.351-.014.282-.034.187a1.157,1.157,0,0,1-.067.888,4.8,4.8,0,0,1-2.566,1.979,9.807,9.807,0,0,1-6.588.359,6.97,6.97,0,0,1-3.628-2.928c-3.892-5.644-3.383-15.288,3.3-18.64a9.4,9.4,0,0,1,5.865-.835,4.417,4.417,0,0,1,2.3,1.05c.9.888.735,1.412.039,2.393a2.016,2.016,0,0,0,.717,2.736,2.043,2.043,0,0,0,2.737-.717Z"></path><path class="d" d="M146.05,156.557c.662-.14,1.323-.285,1.988-.414.372-.072.745-.14,1.119-.2a4.918,4.918,0,0,1,.578-.088c-.533.023-.074.01.055,0a16.257,16.257,0,0,1,2.355-.119q.287.007.573.031c.094.007.188.016.282.026q.337.04-.116-.016c.139-.093.832.177.992.226a2.587,2.587,0,0,1,.436.152q-.416-.18-.121-.045c.077.037.153.077.228.118.035.019.438.265.433.272-.233-.187-.267-.212-.1-.077.065.056.128.114.19.174.113.111.212.237.324.349.232.229-.268-.405.018.045.082.13.149.265.223.4.183.328-.13-.459,0,0,.036.13.081.256.111.388.122.54.015-.311.008.034a2.769,2.769,0,0,0-.01.454q.078-.514.017-.195c-.017.074-.038.147-.061.219-.081.332.2-.446-.042.052q-.174.26.1-.107a2.536,2.536,0,0,1-.172.188c-.062.063-.128.123-.2.18.225-.169.245-.19.062-.064-.186.1-.36.2-.551.292a2.008,2.008,0,0,0-.718,2.736,2.058,2.058,0,0,0,2.737.718,4.8,4.8,0,0,0,2.829-4.075,5.876,5.876,0,0,0-1.523-4.094c-2.015-2.385-5.5-2.6-8.376-2.253-1.595.191-3.16.508-4.73.841a2.015,2.015,0,0,0-1.4,2.46,2.048,2.048,0,0,0,2.461,1.4Z"></path><path class="d" d="M146.323,162.413c.384-.1.774-.18,1.166-.246.2-.035,1-.122.209-.039.253-.026.5-.061.758-.086a22.731,22.731,0,0,1,3.269-.088c.262.013.523.031.784.056.128.012.255.029.383.041.3.028-.565-.088-.016,0a9.273,9.273,0,0,1,1.425.334c.1.034.206.076.31.11.291.095-.507-.246-.114-.047.189.095.369.2.55.308.347.213-.142-.119-.127-.1.056.063.134.126.2.184.032.029.056.069.089.1.161.135-.291-.438-.192-.253.043.081.1.169.153.245.219.327-.124-.511-.055-.121.018.1.092.492.033.059s-.014-.025-.016.084c0,.048-.009.1-.007.147.009.3.12-.519.03-.223-.075.246-.171.51-.231.758.144-.6.049-.127-.063.08-.091.169-.19.334-.293.5a2.019,2.019,0,0,0,.718,2.736,2.042,2.042,0,0,0,2.736-.717,5.719,5.719,0,0,0,.984-4.358,4.5,4.5,0,0,0-2.417-2.841,14.841,14.841,0,0,0-7.519-1.037,20.79,20.79,0,0,0-3.806.565,2,2,0,0,0,1.063,3.857Z"></path><path class="d" d="M201.787,169.508a17.333,17.333,0,0,0,3.745,1.447,26.639,26.639,0,0,0,3.546.749,2.211,2.211,0,0,0,1.541-.2,2,2,0,0,0,.717-2.736,1.918,1.918,0,0,0-1.2-.92,26.58,26.58,0,0,1-3.443-.72c-.587-.161-1.169-.341-1.741-.55-.139-.051-.277-.1-.415-.158-.079-.031-.364-.15-.026-.008.319.135.095.04.025.009-.251-.111-.5-.232-.735-.365a2,2,0,1,0-2.019,3.454Z"></path><path class="d" d="M200.855,175.631a13.031,13.031,0,0,0,4.131,1.582,26.108,26.108,0,0,0,4.143.715,2.008,2.008,0,0,0,2-2,2.05,2.05,0,0,0-2-2c-.228-.019-1.073-.141-.233-.015-.281-.043-.562-.085-.842-.134q-1.01-.175-2-.423a20.439,20.439,0,0,1-1.971-.584c-.156-.056-.31-.118-.466-.177-.223-.084.48.213.2.085-.076-.035-.152-.068-.227-.1a5.377,5.377,0,0,1-.71-.4,2.012,2.012,0,0,0-2.736.718,2.048,2.048,0,0,0,.717,2.736Z"></path><path class="d" d="M200.1,181.384a13.779,13.779,0,0,0,4.5,2.007,12.159,12.159,0,0,0,4.982.464,2,2,0,0,0,1.195-.919,2,2,0,0,0-.717-2.736,2.343,2.343,0,0,0-1.542-.2c.777-.111.267-.037.076-.029-.142.007-.284.007-.426,0a5.133,5.133,0,0,1-.952-.077c.041.009.5.076.225.028-.087-.016-.174-.028-.261-.044-.178-.031-.356-.066-.533-.1q-.55-.119-1.094-.273-.523-.15-1.037-.331c-.179-.063-.356-.13-.532-.2-.073-.029-.392-.162-.072-.026s-.016-.009-.064-.031a9.261,9.261,0,0,1-1.732-.986,2.009,2.009,0,0,0-1.541-.2,2,2,0,0,0-1.4,2.46,2.323,2.323,0,0,0,.919,1.2Z"></path><path class="d" d="M214.458,160.025c4.726.034,10.379,1,13.966,4.379.741.7.848,1.048,1.587,1.865a21.548,21.548,0,0,0,3.6,2.6,3.323,3.323,0,0,1,1.35,3.015,18.46,18.46,0,0,1-.2,4.72c-.438,1.992-.906,4.128-2.346,5.614a13.626,13.626,0,0,1-6.134,3.4,38.089,38.089,0,0,1-7.738,1.416,22.8,22.8,0,0,1-7.384-.245,29.84,29.84,0,0,1-4.872-1.912c-1.07-.514-5.364-2.444-4.732-4.083l-.514.882-.608.184a2.017,2.017,0,0,0,1.946-3.343,5.477,5.477,0,0,1-1.243-1.9c-.2-.648-.277-.719.394-.695,1.86.068,2.468-2.172,1.414-3.414-1.019-1.2-2.481-3.022-.468-4.065a2.016,2.016,0,0,0,.718-2.737,2.155,2.155,0,0,1-.412-1.464.383.383,0,0,1,.145-.336c-.152.126-.145.131.023.014a2.114,2.114,0,0,1,.943-.087,41.3,41.3,0,0,1,5.394,1.093,82.585,82.585,0,0,0,11.261,1.363c2.571.156,2.562-3.845,0-4a93.317,93.317,0,0,1-14.056-2.042c-2.3-.493-5.02-.842-6.689,1.206a5.4,5.4,0,0,0-.063,6.272l.717-2.736a5.519,5.519,0,0,0-3.008,4.938c-.014,2.237,1.3,3.8,2.667,5.409l1.414-3.414a4.129,4.129,0,0,0-4.472,3.7c-.206,2.253,1.088,4.113,2.492,5.727l1.946-3.343c-2.024-.434-3.876.545-4.011,2.76a5.841,5.841,0,0,0,1.807,4.228c1.89,2.012,4.583,3.228,7.087,4.273a21.027,21.027,0,0,0,5.988,1.748,36.809,36.809,0,0,0,10.314-.427c5.71-1.068,12.554-3.146,14.825-9.108a23.858,23.858,0,0,0,1.425-10.169,6.932,6.932,0,0,0-2.088-4.938c-1.224-1.127-2.917-1.682-4.011-2.931a15.232,15.232,0,0,0-6.546-5.043,29.887,29.887,0,0,0-11.835-2.373c-2.575-.018-2.578,3.982,0,4Z"></path><path class="d" d="M234.393,188.308c6.028,3.4,13.68,2.655,20.253,1.716a52.1,52.1,0,0,0,10.159-2.418c2.921-1.043,5.963-2.284,8-4.721,2.61-3.117,3.695-7.157,4.079-11.137a2.015,2.015,0,0,0-2-2,2.044,2.044,0,0,0-2,2c-.326,3.373-1.388,7.414-4.19,9.6-2.674,2.087-6.544,3.048-9.775,3.816a60.227,60.227,0,0,1-11.866,1.589c-3.579.12-7.46-.1-10.644-1.9-2.244-1.268-4.262,2.186-2.018,3.454Z"></path><path class="d" d="M241.611,165.07c1.27.022,2.539-.028,3.809-.032a5.368,5.368,0,0,1,2.846.447c.112.075.115.077.01,0,.107.093.21.189.31.288.213.208.414.429.618.646l1.417,1.513,2.836,3.025a2,2,0,1,0,2.828-2.828l-3.012-3.215a15.109,15.109,0,0,0-3.164-3c-2.475-1.42-5.775-.8-8.5-.851a2,2,0,0,0,0,4Z"></path><path class="d" d="M21.736,236.856c-.026,18.929-.126,37.857-.17,56.786q-.006,2.341-.009,4.683c0,2.605.028,5.368,2.183,7.22,2.219,1.906,6.219,1.914,8.88,1.138,2.94-.858,4.082-3.3,4.313-6.188.315-3.934.049-8,.063-11.943q.027-7.818.062-15.635.072-17.1.128-34.2c.006-2.574-3.994-2.578-4,0-.038,19.077-.167,38.154-.213,57.231a32.272,32.272,0,0,1-.09,4.967c-.14.869-.347,1.57-1.055,1.827a8.56,8.56,0,0,1-4.168.239c-2.317-.41-2.105-2.526-2.1-4.5q0-2.2.008-4.4.03-13.611.085-27.222.05-15.006.086-30.011c0-2.574-4-2.578-4,0Z"></path><path class="d" d="M303.8,280.8c0,18.441-.165,36.883-.216,55.324,0,1.665.013,3.331-.009,5-.012.9-.008,2.271-.755,2.909-.543.465-2.174.524-3.032.521-1.105,0-2.564-.017-3.176-1a5.532,5.532,0,0,1-.45-3.024q0-2.241.007-4.482.033-13.716.1-27.433c.034-8.9.083-17.8.083-26.7,0-2.574-4-2.578-4,0,0,8.167-.043,16.335-.074,24.5q-.055,14.541-.1,29.083c-.01,3.864-1.006,9.754,2.908,12.037a11.056,11.056,0,0,0,9.388.13c2.585-1.279,3.1-4.295,3.108-6.911q.045-14.221.106-28.443c.045-9.75.1-19.5.117-29.25q0-1.13,0-2.26c0-2.574-4-2.578-4,0Z"></path><path class="d" d="M386.969,245.469c0,18.213-.154,36.425-.211,54.638q-.007,2.712-.013,5.423c0,1.419.283,4.055-1.139,4.567a8.623,8.623,0,0,1-3.935.28c-1.347-.193-2.084-.7-2.3-2.114a31.281,31.281,0,0,1-.038-4.583q.027-13.571.094-27.14c.036-9.06.087-18.121.088-27.182,0-2.573-4-2.578-4,0,0,8.319-.046,16.637-.079,24.956q-.056,14.374-.1,28.748c0,1.661-.114,3.37.016,5.026a7.143,7.143,0,0,0,1.857,4.521,6.611,6.611,0,0,0,4.069,1.718c2.813.35,6.647.128,8.333-2.544,1.261-2,1.131-4.482,1.135-6.752q.024-14.477.111-28.954.064-14.213.11-28.425,0-1.092,0-2.183c0-2.573-4-2.578-4,0Z"></path><path class="d" d="M205.165,85.532a13.406,13.406,0,0,0,6.961,9.209c4.108,2.238,8.932,2.375,13.426,1.422A41.86,41.86,0,0,0,237.5,91.436a30.37,30.37,0,0,0,9.022-8.052,2.012,2.012,0,0,0-.717-2.736,2.051,2.051,0,0,0-2.737.717c-4.176,5.494-10.7,8.891-17.279,10.63-3.551.939-7.586,1.215-11-.378a9.773,9.773,0,0,1-5.77-7.148,2.015,2.015,0,0,0-2.46-1.4,2.046,2.046,0,0,0-1.4,2.46Z"></path><path class="d" d="M205.851,51.249c.542,1.489.482,5-2.22,5.462-3.6.2-4.066-4.007-2.985-6.066C201.531,48.96,204.4,48.1,205.851,51.249Z"></path><path class="d" d="M249.9,49.344a2.787,2.787,0,0,1,2.538-.4c.145.04.288.086.429.14q-.236-.089.076.06c.111.066.448.332.179.1.156.136.285.289.43.434-.345-.345-.082-.129-.012,0a8.894,8.894,0,0,1,.49,5.765,10.12,10.12,0,0,1-2.83,5.2,5.362,5.362,0,0,1-2.035,1.227,4.448,4.448,0,0,1-2.954.2,2,2,0,1,0-1.063,3.857,9.22,9.22,0,0,0,7.19-1.129,12.046,12.046,0,0,0,4.666-5.776,14.776,14.776,0,0,0,1.252-6.78c-.142-2.146-.706-4.494-2.436-5.928a6.889,6.889,0,0,0-8.748.21,2.016,2.016,0,0,0,0,2.828,2.041,2.041,0,0,0,2.828,0Z"></path><path class="d" d="M208.327,73.579a8.525,8.525,0,0,0,4.89,1.211,10.207,10.207,0,0,0,6.488-2.092,2,2,0,0,0,.586-1.414,2.037,2.037,0,0,0-.586-1.415,2.062,2.062,0,0,0-2.828,0c.648-.506.246-.189.08-.079-.128.086-.26.166-.394.241s-.3.162-.453.235c-.068.032-.427.193-.1.047s0,0-.071.023a9.429,9.429,0,0,1-1.487.4c-.409.079.419-.026-.046.008-.127.009-.254.023-.381.031-.325.02-.65.02-.976.013-.271-.006-.542-.018-.813-.038-.129-.01-.258-.024-.387-.036-.441-.042.478.084.073.01a6.885,6.885,0,0,1-1-.238c-.055-.018-.109-.041-.164-.059-.29-.094.49.239.248.1-.092-.051-.188-.093-.278-.146-.134-.079-.259-.169-.385-.259a2.01,2.01,0,0,0-2.737.718,2.053,2.053,0,0,0,.718,2.736Z"></path><path class="d" d="M226.825,52.1c.553,1.482.455,4.974-2.388,5.438-3.783.2-4.232-3.988-3.075-6.038C222.309,49.822,225.334,48.969,226.825,52.1Z"></path><path class="d" d="M209.825,58.8a32,32,0,0,0-1.407,2.979l.2-.478a3.953,3.953,0,0,0-.457,1.665,2.471,2.471,0,0,0,.9,1.931,3.386,3.386,0,0,0,1.479.777c.353.066.7.076,1.051.11a2,2,0,0,0,1.414-.585,2,2,0,0,0,0-2.829l-.405-.313a2,2,0,0,0-1.009-.273c-.158-.015-.317-.011-.475-.031l.532.071a1.534,1.534,0,0,1-.327-.088l.478.2a1.7,1.7,0,0,1-.314-.182l.405.313a1.777,1.777,0,0,1-.207-.181l.313.405a.58.58,0,0,1-.076-.132l.2.478a.552.552,0,0,1-.025-.1l.072.532a1.021,1.021,0,0,1,0-.214l-.071.531a2.014,2.014,0,0,1,.131-.443l-.2.478c.1-.232.2-.465.3-.7l-.2.478c.344-.813.745-1.605,1.158-2.384a2.1,2.1,0,0,0,.2-1.542,2.047,2.047,0,0,0-.919-1.2,2,2,0,0,0-2.737.718Z"></path><path class="d" d="M239.15,77.719a39.7,39.7,0,0,0,6.464-6.434A36.553,36.553,0,0,0,249.39,65.8a2,2,0,1,0-3.454-2.019,30.221,30.221,0,0,1-1.724,2.75c-.145.213-.291.426-.443.634-.219.3-.443.6-.668.892.171-.224-.007.008-.085.108-.115.146-.231.292-.347.436a39.534,39.534,0,0,1-6.347,6.289,2,2,0,0,0,0,2.829,2.061,2.061,0,0,0,2.828,0Z"></path><path class="d" d="M229.691,78.438c-7.3,3.19-15.925,4.723-23.372,1.109a20.894,20.894,0,0,1-8.669-7.3,27.641,27.641,0,0,1-3.662-10.67c-.812-5.222-.97-10.559-1.587-15.809a2.061,2.061,0,0,0-2-2,2.012,2.012,0,0,0-2,2c.608,5.172.86,10.39,1.543,15.552a32.454,32.454,0,0,0,3.967,12.485c4.514,7.544,13.467,11.863,22.109,11.827a39.507,39.507,0,0,0,15.69-3.745,2.014,2.014,0,0,0,.718-2.736,2.052,2.052,0,0,0-2.737-.718Z"></path><path class="d" d="M249.864,14.016c9.3,9.444,10.536,25.455,4.934,37.115-1.11,2.31,2.338,4.341,3.454,2.019,6.387-13.3,5.064-31.17-5.559-41.962-1.809-1.838-4.637.991-2.829,2.828Z"></path><path class="d" d="M192.4,45.773c-1.307-9.762-1.1-19.8,4.9-28.08a31.063,31.063,0,0,1,11.353-9.837A37.391,37.391,0,0,1,225.3,4.037a35.141,35.141,0,0,1,20,5.809c2.132,1.455,4.135-2.01,2.019-3.454-10.933-7.463-26.006-8.216-38.079-3.172a34.4,34.4,0,0,0-20.773,25.528,55.6,55.6,0,0,0-.067,17.025,2.066,2.066,0,0,0,2,2c.969,0,2.144-.922,2-2Z"></path><path class="d" d="M226.447,33.068a1.7,1.7,0,0,0,.3.124c-.569-.1-.276-.119-.058-.022s.443.2.662.3q.793.37,1.561.789,1,.546,1.959,1.168.5.327.994.674c.2.139.393.281.586.424.1.074.2.149.3.224-.13-.1-.139-.108-.029-.022a35.146,35.146,0,0,1,8.923,10.694c1.252,2.251,4.708.236,3.454-2.018A35.939,35.939,0,0,0,227.51,29.211a2.013,2.013,0,0,0-2.46,1.4,2.049,2.049,0,0,0,1.4,2.46Z"></path><path class="d" d="M192.643,48.623c.384-1.882,1.7-3.759,2.878-5.462a32.928,32.928,0,0,1,5.25-6.032,11.649,11.649,0,0,1,1.129-.89c.494-.334.81-.252-.137-.535-1-.3-.547.017-.527.7.049,1.734.489,3.357,2.431,3.788,1.4.311,2.582-.611,3.676-1.347,1.118-.752,2.221-1.526,3.348-2.266a30.792,30.792,0,0,1,10.115-4.721c2.512-.557,1.449-4.414-1.063-3.858a31.806,31.806,0,0,0-9.836,4.332c-1.31.819-2.582,1.695-3.857,2.566-.5.34-1,.682-1.505,1.01-.078.05-.6.3-.6.38l.635.365q.678.768.645.214c.082-.1.006-.706,0-.788-.115-1.706-.75-3.594-2.6-4.046-1.534-.373-2.9.812-4.008,1.7a33.852,33.852,0,0,0-5.969,6.6c-1.533,2.11-3.321,4.614-3.853,7.223-.514,2.513,3.341,3.588,3.857,1.063Z"></path><path class="d" d="M.085,24.334c2.008,7.129,4.141,14.37,8.278,20.6,3.886,5.847,11.127,12.3,18.669,8.776A5.46,5.46,0,0,0,30.09,49.55c.33-2.044-.575-4.011-1.563-5.755a15.4,15.4,0,0,0-8.248-7.176c-4.107-1.308-8.056,1.017-8.566,5.353-.48,4.088,1.618,8.468,3.613,11.912A55.34,55.34,0,0,0,31.785,71.219C33.9,72.694,35.9,69.228,33.8,67.765A52.582,52.582,0,0,1,22.239,57a39.608,39.608,0,0,1-5.23-8.613c-.774-1.838-2.782-6.766-.109-8.011,2.453-1.143,5.779,2.08,7.1,3.787,1.206,1.565,3.7,5.244.686,6.181-5.739,1.784-10.673-3.944-13.363-8.2-3.646-5.768-5.54-12.355-7.376-18.871C3.245,20.8-.616,21.848.085,24.334Z"></path><path class="d" d="M57.274,74.631a60.92,60.92,0,0,0-5.224-7.593,48.282,48.282,0,0,0-3.54-3.5.021.021,0,0,0-.024,0,1.644,1.644,0,0,0-.563.753.02.02,0,0,0,.008.023A21.874,21.874,0,0,1,51.032,67c1.1,1.129,5.278,5.846,6.242,7.635"></path><path class="d" d="M59,73.621A51.406,51.406,0,0,0,55.228,67.9a35.568,35.568,0,0,0-3.953-4.525,6.443,6.443,0,0,0-2.233-1.762A2.574,2.574,0,0,0,46.2,63.279a2.132,2.132,0,0,0,.008,2.043,3.249,3.249,0,0,0,1.083.965c.095.066.348.281,0,0,.123.1.248.2.37.3q.386.324.757.664a44.124,44.124,0,0,1,3.561,3.776c.756.875,1.5,1.76,2.219,2.667.048.061.234.234.243.309-.183-.236-.209-.271-.081-.1l.147.2c.138.183.274.368.406.555a10.263,10.263,0,0,1,.636.989,2.02,2.02,0,0,0,2.737.718A2.043,2.043,0,0,0,59,73.621a21,21,0,0,0-2.059-2.858c-.817-1.027-1.667-2.028-2.532-3.015a26.776,26.776,0,0,0-5.47-5.163l.919,1.2-.007-.023-.2,1.541A2.886,2.886,0,0,1,49.8,65a.679.679,0,0,1-.3.259l-1.01.273.024,0L47.1,64.952c1.137,1.006,2.218,2.075,3.251,3.187.215.231.423.464.62.71l.156.2c.221.275-.287-.378-.073-.1.151.2.3.4.453.6a52.313,52.313,0,0,1,4.044,6.089,2.019,2.019,0,0,0,2.737.718A2.043,2.043,0,0,0,59,73.621Z"></path><path class="d" d="M55.245,75.42c-.6,4.094-2.533,7.63-4.6,11.151-1.37,2.336-2.726,4.681-4.1,7.015a4.3,4.3,0,0,0-.816,2.427c.065,1.265,1.047,2.012,1.988,2.695a20.905,20.905,0,0,0,5.924,2.708A19.012,19.012,0,0,0,67.11,101c1.906-.8,4.745-1.925,4.762-4.36.016-2.411-1.082-4.735-1.289-7.113l-3.01,1.727c1.82,1,3.62,2.026,5.437,3.027,1.878,1.034,3.223.4,4.767-.88A18.174,18.174,0,0,0,83.626,83.1a21.189,21.189,0,0,0,.34-6.621c-.209-1.834-.569-4.131-1.739-5.634-1.435-1.843-3.593-.891-5.445-.36-2.09.6-4.19,1.167-6.313,1.634-4,.88-8.611,1.66-12.607.785a2.039,2.039,0,0,0-2.531,1.928c.043-.35-.065.452-.086.591a2.067,2.067,0,0,0,1.4,2.46,2.014,2.014,0,0,0,2.46-1.4c.081-.55.16-1.1.229-1.654L56.8,76.758c3.9.855,8.077.426,11.97-.241,2.31-.395,4.591-.945,6.852-1.557,1.037-.28,2.07-.575,3.1-.875l.87-.254q1.146-.184-.536-.561c-.057.1.329.815.382.972a16.327,16.327,0,0,1-1.6,12.932,11.907,11.907,0,0,1-1.531,2.153A12.745,12.745,0,0,1,75.154,90.4c-.149.124-.3.248-.444.374q-.5.3.552.186c.06-.15-5.2-2.906-5.67-3.161-1.229-.672-3.147.145-3.009,1.726a33.728,33.728,0,0,0,.639,3.5,20.123,20.123,0,0,0,.631,3.316l.019.294q.516-.909.049-.54c-.184.028-.476.294-.643.389a15.378,15.378,0,0,1-1.394.714,16.568,16.568,0,0,1-3.439,1.073,14.53,14.53,0,0,1-7.087-.518,26.29,26.29,0,0,1-3.336-1.2c-.708-.319-2.212-.887-2.561-1.56l.273,1.01c.015.243-.063.12.095-.127.112-.173.218-.352.321-.531s.19-.345.287-.516c.325-.574.661-1.143.994-1.712q1.3-2.212,2.6-4.421c2.246-3.827,4.415-7.774,5.069-12.223a2.066,2.066,0,0,0-1.4-2.46A2.015,2.015,0,0,0,55.245,75.42Z"></path></g></svg>